<svg id="icon" xmlns="http://www.w3.org/2000/svg" viewBox="0 0 23.98 23.98"><defs><style>.cls-1{fill:#fbbf2f;}.cls-2{fill:none;}</style></defs><path class="cls-1" d="M20.53,8.15l-5.17-.44A.42.42,0,0,1,15,7.46L13,2.72a1.11,1.11,0,0,0-2,0L9,7.47a.42.42,0,0,1-.34.25l-5.15.43a1.12,1.12,0,0,0-.64,2L6.74,13.5a.41.41,0,0,1,.13.39l-1.18,5a1.12,1.12,0,0,0,1.67,1.21l4.42-2.67a.43.43,0,0,1,.41,0l4.43,2.68a1.11,1.11,0,0,0,1.66-1.2l-1.17-5.05a.41.41,0,0,1,.13-.39l3.91-3.39A1.11,1.11,0,0,0,20.53,8.15Z"/><rect id="Rectangle_1371" data-name="Rectangle 1371" class="cls-2" y="-0.01" width="24" height="24"/></svg>